<?xml version="1.0" encoding="UTF-8" standalone="no"?>
<svg
   id="flag-icons-us"
   viewBox="0 0 750 500.00003"
   version="1.1"
   sodipodi:docname="en.svg"
   width="750"
   height="500.00003"
   inkscape:version="1.4.2 (ebf0e940d0, 2025-05-08)"
   xmlns:inkscape="http://www.inkscape.org/namespaces/inkscape"
   xmlns:sodipodi="http://sodipodi.sourceforge.net/DTD/sodipodi-0.dtd"
   xmlns="http://www.w3.org/2000/svg"
   xmlns:svg="http://www.w3.org/2000/svg">
  <defs
     id="defs5" />
  <sodipodi:namedview
     id="namedview5"
     pagecolor="#ffffff"
     bordercolor="#000000"
     borderopacity="0.25"
     inkscape:showpageshadow="2"
     inkscape:pageopacity="0.0"
     inkscape:pagecheckerboard="0"
     inkscape:deskcolor="#d1d1d1"
     inkscape:zoom="0.619455"
     inkscape:cx="219.54783"
     inkscape:cy="385.01586"
     inkscape:window-width="1920"
     inkscape:window-height="1052"
     inkscape:window-x="0"
     inkscape:window-y="0"
     inkscape:window-maximized="1"
     inkscape:current-layer="flag-icons-us" />
  <path
     fill="#bd3d44"
     d="M 0,0 H 750 V 500.00002 H 0"
     id="path1"
     style="stroke-width:1"
     mask="none" />
  <path
     stroke="#ffffff"
     stroke-width="37.763"
     d="M 0,57.44794 H 750 M 0,134.21878 H 750 M 0,211.30211 H 750 M 0,288.38546 H 750 M 0,365.46879 H 750 M 0,442.55209 h 750"
     id="path2"
     mask="none"
     clip-path="none" />
  <path
     fill="#192f5d"
     d="M 0,0 H 364.8 V 269.27084 H 0"
     id="path3"
     style="stroke-width:1"
     mask="none" />
  <marker
     id="us-a"
     markerHeight="30"
     markerWidth="30"
     transform="translate(0,20)">
    <path
       fill="#ffffff"
       d="M 14,0 23,27 0,10 H 28 L 5,27 Z"
       id="path4" />
  </marker>
  <path
     fill="none"
     marker-mid="url(#us-a)"
     d="M -8,-7.4582997 8,4.0000306 h 61 61 61 61 60 L 39,31.08336 h 61 61 60 61 L 8,58.1667 h 61 61 61 61 60 L 39,85.25003 h 61 61 60 61 L 8,112.33338 h 61 61 61 61 60 L 39,139.41671 h 61 61 60 61 L 8,165.45837 h 61 61 61 61 60 L 39,192.54171 h 61 61 60 61 L 8,219.62504 h 61 61 61 61 60 z"
     id="path118"
     style="stroke-width:1"
     mask="none" />
</svg>
