<?xml version="1.0" encoding="UTF-8" standalone="no"?>
<svg
   id="flag-icons-us"
   viewBox="0 0 750 500.00003"
   version="1.1"
   sodipodi:docname="en.svg"
   width="750"
   height="500.00003"
   inkscape:version="1.4 (e7c3feb100, 2024-10-09)"
   xmlns:inkscape="http://www.inkscape.org/namespaces/inkscape"
   xmlns:sodipodi="http://sodipodi.sourceforge.net/DTD/sodipodi-0.dtd"
   xmlns="http://www.w3.org/2000/svg"
   xmlns:svg="http://www.w3.org/2000/svg">
  <defs
     id="defs5" />
  <sodipodi:namedview
     id="namedview5"
     pagecolor="#ffffff"
     bordercolor="#000000"
     borderopacity="0.25"
     inkscape:showpageshadow="2"
     inkscape:pageopacity="0.0"
     inkscape:pagecheckerboard="0"
     inkscape:deskcolor="#d1d1d1"
     inkscape:zoom="0.619455"
     inkscape:cx="319.63581"
     inkscape:cy="259.09872"
     inkscape:window-width="1920"
     inkscape:window-height="1052"
     inkscape:window-x="0"
     inkscape:window-y="0"
     inkscape:window-maximized="1"
     inkscape:current-layer="flag-icons-us" />
  <path
     fill="#bd3d44"
     d="M 0,0 H 750 V 500.00002 H 0"
     id="path1"
     style="stroke-width:1" />
  <path
     stroke="#ffffff"
     stroke-width="37.763"
     d="M 0,57.604169 H 750 M 0,134.375 H 750 M 0,211.45834 H 750 M 0,288.54168 H 750 M 0,365.62501 H 750 M 0,442.70835 h 750"
     id="path2" />
  <path
     fill="#192f5d"
     d="M 0,0 H 364.8 V 269.27084 H 0"
     id="path3"
     style="stroke-width:1" />
  <marker
     id="us-a"
     markerHeight="30"
     markerWidth="30"
     transform="translate(0,20)">
    <path
       fill="#ffffff"
       d="M 14,0 23,27 0,10 H 28 L 5,27 Z"
       id="path4" />
  </marker>
  <path
     fill="none"
     marker-mid="url(#us-a)"
     d="m 0,0 16,11.458334 h 61 61 61 61 60 L 47,38.541668 h 61 61 60 61 L 16,65.625002 h 61 61 61 61 60 L 47,92.708336 h 61 61 60 61 L 16,119.79167 h 61 61 61 61 60 L 47,146.875 h 61 61 60 61 L 16,172.91667 h 61 61 61 61 60 L 47,200.00001 h 61 61 60 61 L 16,227.08334 h 61 61 61 61 60 z"
     id="path5"
     style="stroke-width:1" />
</svg>
